solid CATIA STL
  facet normal  1.000000e+000  0.000000e+000  0.000000e+000
    outer loop
      vertex -2.250000e+002 -2.600000e+001  1.009900e+002
      vertex -2.250000e+002  1.450000e+002  1.010000e+002
      vertex -2.250000e+002 -1.450000e+002  1.009900e+002
    endloop
  endfacet
  facet normal  1.000000e+000  -0.000000e+000  0.000000e+000
    outer loop
      vertex -2.250000e+002  1.450000e+002  1.010000e+002
      vertex -2.250000e+002 -1.450000e+002  1.010000e+002
      vertex -2.250000e+002 -1.450000e+002  1.009900e+002
    endloop
  endfacet
  facet normal  1.000000e+000  0.000000e+000  -0.000000e+000
    outer loop
      vertex -2.250000e+002  2.600000e+001  1.009900e+002
      vertex -2.250000e+002  1.450000e+002  1.009900e+002
      vertex -2.250000e+002  1.450000e+002  1.010000e+002
    endloop
  endfacet
  facet normal  1.000000e+000  0.000000e+000  0.000000e+000
    outer loop
      vertex -2.250000e+002  2.600000e+001  1.009900e+002
      vertex -2.250000e+002  1.450000e+002  1.010000e+002
      vertex -2.250000e+002 -2.600000e+001  1.009900e+002
    endloop
  endfacet
  facet normal  1.000000e+000  -0.000000e+000  0.000000e+000
    outer loop
      vertex -2.250000e+002  2.600000e+001  1.009900e+002
      vertex -2.250000e+002 -2.600000e+001  1.009900e+002
      vertex -2.250000e+002 -2.600000e+001  9.918700e+001
    endloop
  endfacet
  facet normal  1.000000e+000  0.000000e+000  0.000000e+000
    outer loop
      vertex -2.250000e+002  2.600000e+001  1.009900e+002
      vertex -2.250000e+002 -2.600000e+001  9.918700e+001
      vertex -2.250000e+002  2.600000e+001  9.918700e+001
    endloop
  endfacet
  facet normal -1.000000e+000  0.000000e+000  0.000000e+000
    outer loop
      vertex  2.250000e+002  2.600000e+001  1.009900e+002
      vertex  2.250000e+002 -1.450000e+002  1.010000e+002
      vertex  2.250000e+002  1.450000e+002  1.009900e+002
    endloop
  endfacet
  facet normal -1.000000e+000  -0.000000e+000  -0.000000e+000
    outer loop
      vertex  2.250000e+002 -1.450000e+002  1.010000e+002
      vertex  2.250000e+002  1.450000e+002  1.010000e+002
      vertex  2.250000e+002  1.450000e+002  1.009900e+002
    endloop
  endfacet
  facet normal -1.000000e+000  0.000000e+000  0.000000e+000
    outer loop
      vertex  2.250000e+002 -2.600000e+001  1.009900e+002
      vertex  2.250000e+002 -1.450000e+002  1.009900e+002
      vertex  2.250000e+002 -1.450000e+002  1.010000e+002
    endloop
  endfacet
  facet normal -1.000000e+000  0.000000e+000  0.000000e+000
    outer loop
      vertex  2.250000e+002 -2.600000e+001  1.009900e+002
      vertex  2.250000e+002 -1.450000e+002  1.010000e+002
      vertex  2.250000e+002  2.600000e+001  1.009900e+002
    endloop
  endfacet
  facet normal -1.000000e+000  -0.000000e+000  -0.000000e+000
    outer loop
      vertex  2.250000e+002 -2.600000e+001  1.009900e+002
      vertex  2.250000e+002  2.600000e+001  1.009900e+002
      vertex  2.250000e+002  2.600000e+001  9.918700e+001
    endloop
  endfacet
  facet normal -1.000000e+000  0.000000e+000  0.000000e+000
    outer loop
      vertex  2.250000e+002 -2.600000e+001  1.009900e+002
      vertex  2.250000e+002  2.600000e+001  9.918700e+001
      vertex  2.250000e+002 -2.600000e+001  9.918700e+001
    endloop
  endfacet
  facet normal  0.000000e+000  1.000000e+000  0.000000e+000
    outer loop
      vertex -2.170000e+002 -2.600000e+001  9.918700e+001
      vertex -2.250000e+002 -2.600000e+001  9.918700e+001
      vertex -2.170000e+002 -2.600000e+001  1.009900e+002
    endloop
  endfacet
  facet normal  0.000000e+000  1.000000e+000  0.000000e+000
    outer loop
      vertex -2.170000e+002 -2.600000e+001  1.009900e+002
      vertex -2.250000e+002 -2.600000e+001  9.918700e+001
      vertex -2.250000e+002 -2.600000e+001  1.009900e+002
    endloop
  endfacet
  facet normal  0.000000e+000 -1.000000e+000  0.000000e+000
    outer loop
      vertex -2.250000e+002  2.600000e+001  9.918700e+001
      vertex -2.170000e+002  2.600000e+001  9.918700e+001
      vertex -2.250000e+002  2.600000e+001  1.009900e+002
    endloop
  endfacet
  facet normal  0.000000e+000 -1.000000e+000  0.000000e+000
    outer loop
      vertex -2.250000e+002  2.600000e+001  1.009900e+002
      vertex -2.170000e+002  2.600000e+001  9.918700e+001
      vertex -2.170000e+002  2.600000e+001  1.009900e+002
    endloop
  endfacet
  facet normal  0.000000e+000 -1.000000e+000  0.000000e+000
    outer loop
      vertex  2.170000e+002  2.600000e+001  9.918700e+001
      vertex  2.250000e+002  2.600000e+001  9.918700e+001
      vertex  2.170000e+002  2.600000e+001  1.009900e+002
    endloop
  endfacet
  facet normal  0.000000e+000 -1.000000e+000  0.000000e+000
    outer loop
      vertex  2.170000e+002  2.600000e+001  1.009900e+002
      vertex  2.250000e+002  2.600000e+001  9.918700e+001
      vertex  2.250000e+002  2.600000e+001  1.009900e+002
    endloop
  endfacet
  facet normal  0.000000e+000  1.000000e+000  0.000000e+000
    outer loop
      vertex  2.250000e+002 -2.600000e+001  9.918700e+001
      vertex  2.170000e+002 -2.600000e+001  9.918700e+001
      vertex  2.250000e+002 -2.600000e+001  1.009900e+002
    endloop
  endfacet
  facet normal  0.000000e+000  1.000000e+000  0.000000e+000
    outer loop
      vertex  2.250000e+002 -2.600000e+001  1.009900e+002
      vertex  2.170000e+002 -2.600000e+001  9.918700e+001
      vertex  2.170000e+002 -2.600000e+001  1.009900e+002
    endloop
  endfacet
  facet normal  -0.000000e+000  0.000000e+000  1.000000e+000
    outer loop
      vertex  2.250000e+002  1.450000e+002  1.009900e+002
      vertex -2.250000e+002  1.450000e+002  1.009900e+002
      vertex -2.250000e+002  2.600000e+001  1.009900e+002
    endloop
  endfacet
  facet normal  0.000000e+000  0.000000e+000  1.000000e+000
    outer loop
      vertex  2.250000e+002  1.450000e+002  1.009900e+002
      vertex -2.250000e+002  2.600000e+001  1.009900e+002
      vertex -2.170000e+002  2.600000e+001  1.009900e+002
    endloop
  endfacet
  facet normal  0.000000e+000  0.000000e+000  1.000000e+000
    outer loop
      vertex  2.250000e+002  1.450000e+002  1.009900e+002
      vertex -2.170000e+002  2.600000e+001  1.009900e+002
      vertex  2.170000e+002  2.600000e+001  1.009900e+002
    endloop
  endfacet
  facet normal  0.000000e+000  0.000000e+000  1.000000e+000
    outer loop
      vertex  2.250000e+002  1.450000e+002  1.009900e+002
      vertex  2.170000e+002  2.600000e+001  1.009900e+002
      vertex  2.250000e+002  2.600000e+001  1.009900e+002
    endloop
  endfacet
  facet normal  0.000000e+000  -0.000000e+000  1.000000e+000
    outer loop
      vertex -2.250000e+002 -1.450000e+002  1.009900e+002
      vertex  2.250000e+002 -1.450000e+002  1.009900e+002
      vertex  2.250000e+002 -2.600000e+001  1.009900e+002
    endloop
  endfacet
  facet normal  0.000000e+000  0.000000e+000  1.000000e+000
    outer loop
      vertex -2.250000e+002 -1.450000e+002  1.009900e+002
      vertex  2.250000e+002 -2.600000e+001  1.009900e+002
      vertex  2.170000e+002 -2.600000e+001  1.009900e+002
    endloop
  endfacet
  facet normal  0.000000e+000  0.000000e+000  1.000000e+000
    outer loop
      vertex -2.250000e+002 -1.450000e+002  1.009900e+002
      vertex  2.170000e+002 -2.600000e+001  1.009900e+002
      vertex -2.170000e+002 -2.600000e+001  1.009900e+002
    endloop
  endfacet
  facet normal  0.000000e+000  0.000000e+000  1.000000e+000
    outer loop
      vertex -2.250000e+002 -1.450000e+002  1.009900e+002
      vertex -2.170000e+002 -2.600000e+001  1.009900e+002
      vertex -2.250000e+002 -2.600000e+001  1.009900e+002
    endloop
  endfacet
  facet normal  0.000000e+000  0.000000e+000  1.000000e+000
    outer loop
      vertex -2.170000e+002 -2.600000e+001  1.009900e+002
      vertex  2.170000e+002 -2.600000e+001  1.009900e+002
      vertex -2.170000e+002  2.600000e+001  1.009900e+002
    endloop
  endfacet
  facet normal  -0.000000e+000  0.000000e+000  1.000000e+000
    outer loop
      vertex -2.170000e+002  2.600000e+001  1.009900e+002
      vertex  2.170000e+002 -2.600000e+001  1.009900e+002
      vertex  2.170000e+002  2.600000e+001  1.009900e+002
    endloop
  endfacet
  facet normal  1.000000e+000  0.000000e+000  0.000000e+000
    outer loop
      vertex  2.170000e+002  2.600000e+001  9.918700e+001
      vertex  2.170000e+002  2.600000e+001  1.009900e+002
      vertex  2.170000e+002 -2.600000e+001  9.918700e+001
    endloop
  endfacet
  facet normal  1.000000e+000  0.000000e+000  0.000000e+000
    outer loop
      vertex  2.170000e+002 -2.600000e+001  9.918700e+001
      vertex  2.170000e+002  2.600000e+001  1.009900e+002
      vertex  2.170000e+002 -2.600000e+001  1.009900e+002
    endloop
  endfacet
  facet normal -1.000000e+000  0.000000e+000  0.000000e+000
    outer loop
      vertex -2.170000e+002  2.600000e+001  9.918700e+001
      vertex -2.170000e+002 -2.600000e+001  9.918700e+001
      vertex -2.170000e+002  2.600000e+001  1.009900e+002
    endloop
  endfacet
  facet normal -1.000000e+000  -0.000000e+000  0.000000e+000
    outer loop
      vertex -2.170000e+002  2.600000e+001  1.009900e+002
      vertex -2.170000e+002 -2.600000e+001  9.918700e+001
      vertex -2.170000e+002 -2.600000e+001  1.009900e+002
    endloop
  endfacet
  facet normal  0.000000e+000  0.000000e+000  1.000000e+000
    outer loop
      vertex  2.170000e+002 -2.600000e+001  9.918700e+001
      vertex  2.250000e+002 -2.600000e+001  9.918700e+001
      vertex  2.170000e+002  2.600000e+001  9.918700e+001
    endloop
  endfacet
  facet normal  -0.000000e+000  0.000000e+000  1.000000e+000
    outer loop
      vertex  2.170000e+002  2.600000e+001  9.918700e+001
      vertex  2.250000e+002 -2.600000e+001  9.918700e+001
      vertex  2.250000e+002  2.600000e+001  9.918700e+001
    endloop
  endfacet
  facet normal  0.000000e+000  0.000000e+000  1.000000e+000
    outer loop
      vertex -2.250000e+002 -2.600000e+001  9.918700e+001
      vertex -2.170000e+002 -2.600000e+001  9.918700e+001
      vertex -2.250000e+002  2.600000e+001  9.918700e+001
    endloop
  endfacet
  facet normal  -0.000000e+000  0.000000e+000  1.000000e+000
    outer loop
      vertex -2.250000e+002  2.600000e+001  9.918700e+001
      vertex -2.170000e+002 -2.600000e+001  9.918700e+001
      vertex -2.170000e+002  2.600000e+001  9.918700e+001
    endloop
  endfacet
  facet normal  0.000000e+000  0.000000e+000  1.000000e+000
    outer loop
      vertex  2.880000e+002 -1.605900e+002  1.010000e+002
      vertex  2.250000e+002 -1.450000e+002  1.010000e+002
      vertex -2.880000e+002 -1.605900e+002  1.010000e+002
    endloop
  endfacet
  facet normal  0.000000e+000  0.000000e+000  1.000000e+000
    outer loop
      vertex -2.880000e+002 -1.605900e+002  1.010000e+002
      vertex  2.250000e+002 -1.450000e+002  1.010000e+002
      vertex -2.250000e+002 -1.450000e+002  1.010000e+002
    endloop
  endfacet
  facet normal  0.000000e+000  0.000000e+000  1.000000e+000
    outer loop
      vertex -2.880000e+002 -1.605900e+002  1.010000e+002
      vertex -2.250000e+002 -1.450000e+002  1.010000e+002
      vertex -2.880000e+002  1.605900e+002  1.010000e+002
    endloop
  endfacet
  facet normal  0.000000e+000  0.000000e+000  1.000000e+000
    outer loop
      vertex -2.880000e+002  1.605900e+002  1.010000e+002
      vertex -2.250000e+002 -1.450000e+002  1.010000e+002
      vertex -2.250000e+002  1.450000e+002  1.010000e+002
    endloop
  endfacet
  facet normal  0.000000e+000  -0.000000e+000  1.000000e+000
    outer loop
      vertex -2.880000e+002  1.605900e+002  1.010000e+002
      vertex -2.250000e+002  1.450000e+002  1.010000e+002
      vertex  2.880000e+002  1.605900e+002  1.010000e+002
    endloop
  endfacet
  facet normal  0.000000e+000  0.000000e+000  1.000000e+000
    outer loop
      vertex  2.880000e+002  1.605900e+002  1.010000e+002
      vertex -2.250000e+002  1.450000e+002  1.010000e+002
      vertex  2.250000e+002  1.450000e+002  1.010000e+002
    endloop
  endfacet
  facet normal  -0.000000e+000  0.000000e+000  1.000000e+000
    outer loop
      vertex  2.880000e+002  1.605900e+002  1.010000e+002
      vertex  2.250000e+002  1.450000e+002  1.010000e+002
      vertex  2.880000e+002 -1.605900e+002  1.010000e+002
    endloop
  endfacet
  facet normal  0.000000e+000  0.000000e+000  1.000000e+000
    outer loop
      vertex  2.880000e+002 -1.605900e+002  1.010000e+002
      vertex  2.250000e+002  1.450000e+002  1.010000e+002
      vertex  2.250000e+002 -1.450000e+002  1.010000e+002
    endloop
  endfacet
  facet normal  0.000000e+000  1.000000e+000  0.000000e+000
    outer loop
      vertex  2.250000e+002 -1.450000e+002  1.009900e+002
      vertex -2.250000e+002 -1.450000e+002  1.009900e+002
      vertex  2.250000e+002 -1.450000e+002  1.010000e+002
    endloop
  endfacet
  facet normal  0.000000e+000  1.000000e+000  0.000000e+000
    outer loop
      vertex  2.250000e+002 -1.450000e+002  1.010000e+002
      vertex -2.250000e+002 -1.450000e+002  1.009900e+002
      vertex -2.250000e+002 -1.450000e+002  1.010000e+002
    endloop
  endfacet
  facet normal  0.000000e+000 -1.000000e+000  0.000000e+000
    outer loop
      vertex -2.250000e+002  1.450000e+002  1.009900e+002
      vertex  2.250000e+002  1.450000e+002  1.009900e+002
      vertex -2.250000e+002  1.450000e+002  1.010000e+002
    endloop
  endfacet
  facet normal  0.000000e+000 -1.000000e+000  0.000000e+000
    outer loop
      vertex -2.250000e+002  1.450000e+002  1.010000e+002
      vertex  2.250000e+002  1.450000e+002  1.009900e+002
      vertex  2.250000e+002  1.450000e+002  1.010000e+002
    endloop
  endfacet
  facet normal -1.000000e+000  0.000000e+000  0.000000e+000
    outer loop
      vertex -2.880000e+002 -1.605900e+002 -1.010000e+002
      vertex -2.880000e+002 -1.790000e+002 -8.259000e+001
      vertex -2.880000e+002 -3.500000e+001  6.000000e+001
    endloop
  endfacet
  facet normal -1.000000e+000  0.000000e+000  -0.000000e+000
    outer loop
      vertex -2.880000e+002 -1.605900e+002 -1.010000e+002
      vertex -2.880000e+002 -3.500000e+001  6.000000e+001
      vertex -2.880000e+002 -3.426585e+001  5.536475e+001
    endloop
  endfacet
  facet normal -1.000000e+000  0.000000e+000  -0.000000e+000
    outer loop
      vertex -2.880000e+002 -1.605900e+002 -1.010000e+002
      vertex -2.880000e+002 -3.426585e+001  5.536475e+001
      vertex -2.880000e+002 -3.213525e+001  5.118322e+001
    endloop
  endfacet
  facet normal -1.000000e+000  0.000000e+000  -0.000000e+000
    outer loop
      vertex -2.880000e+002 -1.605900e+002 -1.010000e+002
      vertex -2.880000e+002 -3.213525e+001  5.118322e+001
      vertex -2.880000e+002 -2.881678e+001  4.786475e+001
    endloop
  endfacet
  facet normal -1.000000e+000  0.000000e+000  -0.000000e+000
    outer loop
      vertex -2.880000e+002 -1.605900e+002 -1.010000e+002
      vertex -2.880000e+002 -2.881678e+001  4.786475e+001
      vertex -2.880000e+002 -2.463526e+001  4.573415e+001
    endloop
  endfacet
  facet normal -1.000000e+000  0.000000e+000  -0.000000e+000
    outer loop
      vertex -2.880000e+002 -1.605900e+002 -1.010000e+002
      vertex -2.880000e+002 -2.463526e+001  4.573415e+001
      vertex -2.880000e+002 -2.000000e+001  4.500000e+001
    endloop
  endfacet
  facet normal -1.000000e+000  0.000000e+000  -0.000000e+000
    outer loop
      vertex -2.880000e+002 -1.605900e+002 -1.010000e+002
      vertex -2.880000e+002 -2.000000e+001  4.500000e+001
      vertex -2.880000e+002  2.000000e+001  4.500000e+001
    endloop
  endfacet
  facet normal -1.000000e+000  0.000000e+000  -0.000000e+000
    outer loop
      vertex -2.880000e+002 -1.605900e+002 -1.010000e+002
      vertex -2.880000e+002  2.000000e+001  4.500000e+001
      vertex -2.880000e+002  2.463526e+001  4.573415e+001
    endloop
  endfacet
  facet normal -9.999999e-001  0.000000e+000  -0.000000e+000
    outer loop
      vertex -2.880000e+002 -1.605900e+002 -1.010000e+002
      vertex -2.880000e+002  2.463526e+001  4.573415e+001
      vertex -2.880000e+002  2.881678e+001  4.786475e+001
    endloop
  endfacet
  facet normal -1.000000e+000  0.000000e+000  0.000000e+000
    outer loop
      vertex -2.880000e+002  1.605900e+002 -1.010000e+002
      vertex -2.880000e+002 -1.605900e+002 -1.010000e+002
      vertex -2.880000e+002  2.881678e+001  4.786475e+001
    endloop
  endfacet
  facet normal -1.000000e+000  0.000000e+000  0.000000e+000
    outer loop
      vertex -2.880000e+002  1.605900e+002 -1.010000e+002
      vertex -2.880000e+002  2.881678e+001  4.786475e+001
      vertex -2.880000e+002  3.213525e+001  5.118322e+001
    endloop
  endfacet
  facet normal -1.000000e+000  0.000000e+000  0.000000e+000
    outer loop
      vertex -2.880000e+002  1.605900e+002 -1.010000e+002
      vertex -2.880000e+002  3.213525e+001  5.118322e+001
      vertex -2.880000e+002  3.426585e+001  5.536475e+001
    endloop
  endfacet
  facet normal -1.000000e+000  0.000000e+000  0.000000e+000
    outer loop
      vertex -2.880000e+002  1.605900e+002 -1.010000e+002
      vertex -2.880000e+002  3.426585e+001  5.536475e+001
      vertex -2.880000e+002  3.500000e+001  6.000000e+001
    endloop
  endfacet
  facet normal -1.000000e+000  0.000000e+000  0.000000e+000
    outer loop
      vertex -2.880000e+002  1.605900e+002 -1.010000e+002
      vertex -2.880000e+002  3.500000e+001  6.000000e+001
      vertex -2.880000e+002  1.790000e+002 -8.259000e+001
    endloop
  endfacet
  facet normal -1.000000e+000  0.000000e+000  0.000000e+000
    outer loop
      vertex -2.880000e+002 -1.605900e+002  1.010000e+002
      vertex -2.880000e+002  2.000000e+001  7.500000e+001
      vertex -2.880000e+002 -2.000000e+001  7.500000e+001
    endloop
  endfacet
  facet normal -9.999999e-001  -0.000000e+000  0.000000e+000
    outer loop
      vertex -2.880000e+002 -1.605900e+002  1.010000e+002
      vertex -2.880000e+002 -2.000000e+001  7.500000e+001
      vertex -2.880000e+002 -2.463526e+001  7.426585e+001
    endloop
  endfacet
  facet normal -1.000000e+000  -0.000000e+000  0.000000e+000
    outer loop
      vertex -2.880000e+002 -1.605900e+002  1.010000e+002
      vertex -2.880000e+002 -2.463526e+001  7.426585e+001
      vertex -2.880000e+002 -2.881678e+001  7.213525e+001
    endloop
  endfacet
  facet normal -1.000000e+000  -0.000000e+000  0.000000e+000
    outer loop
      vertex -2.880000e+002 -1.605900e+002  1.010000e+002
      vertex -2.880000e+002 -2.881678e+001  7.213525e+001
      vertex -2.880000e+002 -3.213525e+001  6.881678e+001
    endloop
  endfacet
  facet normal -1.000000e+000  -0.000000e+000  0.000000e+000
    outer loop
      vertex -2.880000e+002 -1.605900e+002  1.010000e+002
      vertex -2.880000e+002 -3.213525e+001  6.881678e+001
      vertex -2.880000e+002 -3.426585e+001  6.463525e+001
    endloop
  endfacet
  facet normal -1.000000e+000  -0.000000e+000  0.000000e+000
    outer loop
      vertex -2.880000e+002 -1.605900e+002  1.010000e+002
      vertex -2.880000e+002 -3.426585e+001  6.463525e+001
      vertex -2.880000e+002 -3.500000e+001  6.000000e+001
    endloop
  endfacet
  facet normal -1.000000e+000  -0.000000e+000  0.000000e+000
    outer loop
      vertex -2.880000e+002 -1.605900e+002  1.010000e+002
      vertex -2.880000e+002 -3.500000e+001  6.000000e+001
      vertex -2.880000e+002 -1.790000e+002 -8.259000e+001
    endloop
  endfacet
  facet normal -1.000000e+000  0.000000e+000  0.000000e+000
    outer loop
      vertex -2.880000e+002 -1.605900e+002  1.010000e+002
      vertex -2.880000e+002 -1.790000e+002 -8.259000e+001
      vertex -2.880000e+002 -1.790000e+002  8.259000e+001
    endloop
  endfacet
  facet normal -1.000000e+000  -0.000000e+000  -0.000000e+000
    outer loop
      vertex -2.880000e+002  1.605900e+002  1.010000e+002
      vertex -2.880000e+002  1.790000e+002  8.259000e+001
      vertex -2.880000e+002  1.790000e+002 -8.259000e+001
    endloop
  endfacet
  facet normal -1.000000e+000  0.000000e+000  0.000000e+000
    outer loop
      vertex -2.880000e+002  1.605900e+002  1.010000e+002
      vertex -2.880000e+002  1.790000e+002 -8.259000e+001
      vertex -2.880000e+002  3.500000e+001  6.000000e+001
    endloop
  endfacet
  facet normal -1.000000e+000  0.000000e+000  0.000000e+000
    outer loop
      vertex -2.880000e+002  1.605900e+002  1.010000e+002
      vertex -2.880000e+002  3.500000e+001  6.000000e+001
      vertex -2.880000e+002  3.426585e+001  6.463525e+001
    endloop
  endfacet
  facet normal -1.000000e+000  0.000000e+000  0.000000e+000
    outer loop
      vertex -2.880000e+002  1.605900e+002  1.010000e+002
      vertex -2.880000e+002  3.426585e+001  6.463525e+001
      vertex -2.880000e+002  3.213525e+001  6.881678e+001
    endloop
  endfacet
  facet normal -1.000000e+000  0.000000e+000  0.000000e+000
    outer loop
      vertex -2.880000e+002  1.605900e+002  1.010000e+002
      vertex -2.880000e+002  3.213525e+001  6.881678e+001
      vertex -2.880000e+002  2.881678e+001  7.213525e+001
    endloop
  endfacet
  facet normal -9.999999e-001  0.000000e+000  0.000000e+000
    outer loop
      vertex -2.880000e+002  1.605900e+002  1.010000e+002
      vertex -2.880000e+002  2.881678e+001  7.213525e+001
      vertex -2.880000e+002  2.463526e+001  7.426585e+001
    endloop
  endfacet
  facet normal -9.999999e-001  0.000000e+000  0.000000e+000
    outer loop
      vertex -2.880000e+002  1.605900e+002  1.010000e+002
      vertex -2.880000e+002  2.463526e+001  7.426585e+001
      vertex -2.880000e+002  2.000000e+001  7.500000e+001
    endloop
  endfacet
  facet normal -1.000000e+000  0.000000e+000  0.000000e+000
    outer loop
      vertex -2.880000e+002  1.605900e+002  1.010000e+002
      vertex -2.880000e+002  2.000000e+001  7.500000e+001
      vertex -2.880000e+002 -1.605900e+002  1.010000e+002
    endloop
  endfacet
  facet normal  1.000000e+000  0.000000e+000  0.000000e+000
    outer loop
      vertex  2.880000e+002  1.605900e+002 -1.010000e+002
      vertex  2.880000e+002  1.790000e+002 -8.259000e+001
      vertex  2.880000e+002  3.500000e+001  6.000000e+001
    endloop
  endfacet
  facet normal  1.000000e+000  0.000000e+000  0.000000e+000
    outer loop
      vertex  2.880000e+002  1.605900e+002 -1.010000e+002
      vertex  2.880000e+002  3.500000e+001  6.000000e+001
      vertex  2.880000e+002  3.426585e+001  5.536475e+001
    endloop
  endfacet
  facet normal  1.000000e+000  0.000000e+000  0.000000e+000
    outer loop
      vertex  2.880000e+002  1.605900e+002 -1.010000e+002
      vertex  2.880000e+002  3.426585e+001  5.536475e+001
      vertex  2.880000e+002  3.213525e+001  5.118322e+001
    endloop
  endfacet
  facet normal  1.000000e+000  0.000000e+000  0.000000e+000
    outer loop
      vertex  2.880000e+002  1.605900e+002 -1.010000e+002
      vertex  2.880000e+002  3.213525e+001  5.118322e+001
      vertex  2.880000e+002  2.881678e+001  4.786475e+001
    endloop
  endfacet
  facet normal  1.000000e+000  0.000000e+000  0.000000e+000
    outer loop
      vertex  2.880000e+002  1.605900e+002 -1.010000e+002
      vertex  2.880000e+002  2.881678e+001  4.786475e+001
      vertex  2.880000e+002  2.463526e+001  4.573415e+001
    endloop
  endfacet
  facet normal  1.000000e+000  0.000000e+000  0.000000e+000
    outer loop
      vertex  2.880000e+002  1.605900e+002 -1.010000e+002
      vertex  2.880000e+002  2.463526e+001  4.573415e+001
      vertex  2.880000e+002  2.000000e+001  4.500000e+001
    endloop
  endfacet
  facet normal  1.000000e+000  0.000000e+000  0.000000e+000
    outer loop
      vertex  2.880000e+002  1.605900e+002 -1.010000e+002
      vertex  2.880000e+002  2.000000e+001  4.500000e+001
      vertex  2.880000e+002 -2.000000e+001  4.500000e+001
    endloop
  endfacet
  facet normal  1.000000e+000  0.000000e+000  0.000000e+000
    outer loop
      vertex  2.880000e+002  1.605900e+002 -1.010000e+002
      vertex  2.880000e+002 -2.000000e+001  4.500000e+001
      vertex  2.880000e+002 -2.463526e+001  4.573415e+001
    endloop
  endfacet
  facet normal  9.999999e-001  0.000000e+000  0.000000e+000
    outer loop
      vertex  2.880000e+002  1.605900e+002 -1.010000e+002
      vertex  2.880000e+002 -2.463526e+001  4.573415e+001
      vertex  2.880000e+002 -2.881678e+001  4.786475e+001
    endloop
  endfacet
  facet normal  1.000000e+000  0.000000e+000  0.000000e+000
    outer loop
      vertex  2.880000e+002 -1.605900e+002 -1.010000e+002
      vertex  2.880000e+002  1.605900e+002 -1.010000e+002
      vertex  2.880000e+002 -2.881678e+001  4.786475e+001
    endloop
  endfacet
  facet normal  1.000000e+000  0.000000e+000  0.000000e+000
    outer loop
      vertex  2.880000e+002 -1.605900e+002 -1.010000e+002
      vertex  2.880000e+002 -2.881678e+001  4.786475e+001
      vertex  2.880000e+002 -3.213525e+001  5.118322e+001
    endloop
  endfacet
  facet normal  1.000000e+000  0.000000e+000  0.000000e+000
    outer loop
      vertex  2.880000e+002 -1.605900e+002 -1.010000e+002
      vertex  2.880000e+002 -3.213525e+001  5.118322e+001
      vertex  2.880000e+002 -3.426585e+001  5.536475e+001
    endloop
  endfacet
  facet normal  1.000000e+000  0.000000e+000  0.000000e+000
    outer loop
      vertex  2.880000e+002 -1.605900e+002 -1.010000e+002
      vertex  2.880000e+002 -3.426585e+001  5.536475e+001
      vertex  2.880000e+002 -3.500000e+001  6.000000e+001
    endloop
  endfacet
  facet normal  1.000000e+000  0.000000e+000  0.000000e+000
    outer loop
      vertex  2.880000e+002 -1.605900e+002 -1.010000e+002
      vertex  2.880000e+002 -3.500000e+001  6.000000e+001
      vertex  2.880000e+002 -1.790000e+002 -8.259000e+001
    endloop
  endfacet
  facet normal  1.000000e+000  0.000000e+000  0.000000e+000
    outer loop
      vertex  2.880000e+002  1.605900e+002  1.010000e+002
      vertex  2.880000e+002 -2.000000e+001  7.500000e+001
      vertex  2.880000e+002  2.000000e+001  7.500000e+001
    endloop
  endfacet
  facet normal  9.999999e-001  -0.000000e+000  0.000000e+000
    outer loop
      vertex  2.880000e+002  1.605900e+002  1.010000e+002
      vertex  2.880000e+002  2.000000e+001  7.500000e+001
      vertex  2.880000e+002  2.463526e+001  7.426585e+001
    endloop
  endfacet
  facet normal  1.000000e+000  -0.000000e+000  0.000000e+000
    outer loop
      vertex  2.880000e+002  1.605900e+002  1.010000e+002
      vertex  2.880000e+002  2.463526e+001  7.426585e+001
      vertex  2.880000e+002  2.881678e+001  7.213525e+001
    endloop
  endfacet
  facet normal  1.000000e+000  -0.000000e+000  0.000000e+000
    outer loop
      vertex  2.880000e+002  1.605900e+002  1.010000e+002
      vertex  2.880000e+002  2.881678e+001  7.213525e+001
      vertex  2.880000e+002  3.213525e+001  6.881678e+001
    endloop
  endfacet
  facet normal  1.000000e+000  -0.000000e+000  0.000000e+000
    outer loop
      vertex  2.880000e+002  1.605900e+002  1.010000e+002
      vertex  2.880000e+002  3.213525e+001  6.881678e+001
      vertex  2.880000e+002  3.426585e+001  6.463525e+001
    endloop
  endfacet
  facet normal  1.000000e+000  -0.000000e+000  0.000000e+000
    outer loop
      vertex  2.880000e+002  1.605900e+002  1.010000e+002
      vertex  2.880000e+002  3.426585e+001  6.463525e+001
      vertex  2.880000e+002  3.500000e+001  6.000000e+001
    endloop
  endfacet
  facet normal  1.000000e+000  -0.000000e+000  0.000000e+000
    outer loop
      vertex  2.880000e+002  1.605900e+002  1.010000e+002
      vertex  2.880000e+002  3.500000e+001  6.000000e+001
      vertex  2.880000e+002  1.790000e+002 -8.259000e+001
    endloop
  endfacet
  facet normal  1.000000e+000  0.000000e+000  -0.000000e+000
    outer loop
      vertex  2.880000e+002  1.605900e+002  1.010000e+002
      vertex  2.880000e+002  1.790000e+002 -8.259000e+001
      vertex  2.880000e+002  1.790000e+002  8.259000e+001
    endloop
  endfacet
  facet normal  1.000000e+000  -0.000000e+000  0.000000e+000
    outer loop
      vertex  2.880000e+002 -1.605900e+002  1.010000e+002
      vertex  2.880000e+002 -1.790000e+002  8.259000e+001
      vertex  2.880000e+002 -1.790000e+002 -8.259000e+001
    endloop
  endfacet
  facet normal  1.000000e+000  0.000000e+000  0.000000e+000
    outer loop
      vertex  2.880000e+002 -1.605900e+002  1.010000e+002
      vertex  2.880000e+002 -1.790000e+002 -8.259000e+001
      vertex  2.880000e+002 -3.500000e+001  6.000000e+001
    endloop
  endfacet
  facet normal  1.000000e+000  0.000000e+000  -0.000000e+000
    outer loop
      vertex  2.880000e+002 -1.605900e+002  1.010000e+002
      vertex  2.880000e+002 -3.500000e+001  6.000000e+001
      vertex  2.880000e+002 -3.426585e+001  6.463525e+001
    endloop
  endfacet
  facet normal  1.000000e+000  0.000000e+000  -0.000000e+000
    outer loop
      vertex  2.880000e+002 -1.605900e+002  1.010000e+002
      vertex  2.880000e+002 -3.426585e+001  6.463525e+001
      vertex  2.880000e+002 -3.213525e+001  6.881678e+001
    endloop
  endfacet
  facet normal  1.000000e+000  0.000000e+000  -0.000000e+000
    outer loop
      vertex  2.880000e+002 -1.605900e+002  1.010000e+002
      vertex  2.880000e+002 -3.213525e+001  6.881678e+001
      vertex  2.880000e+002 -2.881678e+001  7.213525e+001
    endloop
  endfacet
  facet normal  9.999999e-001  0.000000e+000  -0.000000e+000
    outer loop
      vertex  2.880000e+002 -1.605900e+002  1.010000e+002
      vertex  2.880000e+002 -2.881678e+001  7.213525e+001
      vertex  2.880000e+002 -2.463526e+001  7.426585e+001
    endloop
  endfacet
  facet normal  9.999999e-001  0.000000e+000  -0.000000e+000
    outer loop
      vertex  2.880000e+002 -1.605900e+002  1.010000e+002
      vertex  2.880000e+002 -2.463526e+001  7.426585e+001
      vertex  2.880000e+002 -2.000000e+001  7.500000e+001
    endloop
  endfacet
  facet normal  1.000000e+000  0.000000e+000  -0.000000e+000
    outer loop
      vertex  2.880000e+002 -1.605900e+002  1.010000e+002
      vertex  2.880000e+002 -2.000000e+001  7.500000e+001
      vertex  2.880000e+002  1.605900e+002  1.010000e+002
    endloop
  endfacet
  facet normal  -0.000000e+000  0.000000e+000  1.000000e+000
    outer loop
      vertex  2.880000e+002  2.000000e+001  4.500000e+001
      vertex -2.880000e+002  2.000000e+001  4.500000e+001
      vertex  2.880000e+002 -2.000000e+001  4.500000e+001
    endloop
  endfacet
  facet normal  0.000000e+000  0.000000e+000  1.000000e+000
    outer loop
      vertex  2.880000e+002 -2.000000e+001  4.500000e+001
      vertex -2.880000e+002  2.000000e+001  4.500000e+001
      vertex -2.880000e+002 -2.000000e+001  4.500000e+001
    endloop
  endfacet
  facet normal  0.000000e+000  9.876883e-001  1.564348e-001
    outer loop
      vertex -2.880000e+002 -3.500000e+001  6.000000e+001
      vertex  2.880000e+002 -3.426585e+001  5.536475e+001
      vertex -2.880000e+002 -3.426585e+001  5.536475e+001
    endloop
  endfacet
  facet normal  -0.000000e+000  8.910066e-001  4.539902e-001
    outer loop
      vertex -2.880000e+002 -3.426585e+001  5.536475e+001
      vertex  2.880000e+002 -3.426585e+001  5.536475e+001
      vertex  2.880000e+002 -3.213525e+001  5.118322e+001
    endloop
  endfacet
  facet normal  0.000000e+000  8.910066e-001  4.539902e-001
    outer loop
      vertex -2.880000e+002 -3.426585e+001  5.536475e+001
      vertex  2.880000e+002 -3.213525e+001  5.118322e+001
      vertex -2.880000e+002 -3.213525e+001  5.118322e+001
    endloop
  endfacet
  facet normal  -0.000000e+000  7.071066e-001  7.071069e-001
    outer loop
      vertex -2.880000e+002 -3.213525e+001  5.118322e+001
      vertex  2.880000e+002 -3.213525e+001  5.118322e+001
      vertex  2.880000e+002 -2.881678e+001  4.786475e+001
    endloop
  endfacet
  facet normal  0.000000e+000  7.071066e-001  7.071069e-001
    outer loop
      vertex -2.880000e+002 -3.213525e+001  5.118322e+001
      vertex  2.880000e+002 -2.881678e+001  4.786475e+001
      vertex -2.880000e+002 -2.881678e+001  4.786475e+001
    endloop
  endfacet
  facet normal  -0.000000e+000  4.539905e-001  8.910065e-001
    outer loop
      vertex -2.880000e+002 -2.881678e+001  4.786475e+001
      vertex  2.880000e+002 -2.881678e+001  4.786475e+001
      vertex  2.880000e+002 -2.463526e+001  4.573415e+001
    endloop
  endfacet
  facet normal  0.000000e+000  4.539905e-001  8.910065e-001
    outer loop
      vertex -2.880000e+002 -2.881678e+001  4.786475e+001
      vertex  2.880000e+002 -2.463526e+001  4.573415e+001
      vertex -2.880000e+002 -2.463526e+001  4.573415e+001
    endloop
  endfacet
  facet normal  -0.000000e+000  1.564348e-001  9.876884e-001
    outer loop
      vertex -2.880000e+002 -2.463526e+001  4.573415e+001
      vertex  2.880000e+002 -2.463526e+001  4.573415e+001
      vertex  2.880000e+002 -2.000000e+001  4.500000e+001
    endloop
  endfacet
  facet normal  0.000000e+000  1.564348e-001  9.876884e-001
    outer loop
      vertex -2.880000e+002 -2.463526e+001  4.573415e+001
      vertex  2.880000e+002 -2.000000e+001  4.500000e+001
      vertex -2.880000e+002 -2.000000e+001  4.500000e+001
    endloop
  endfacet
  facet normal  -0.000000e+000  9.876883e-001  1.564348e-001
    outer loop
      vertex  2.880000e+002 -3.426585e+001  5.536475e+001
      vertex -2.880000e+002 -3.500000e+001  6.000000e+001
      vertex  2.880000e+002 -3.500000e+001  6.000000e+001
    endloop
  endfacet
  facet normal  0.000000e+000  9.876883e-001 -1.564348e-001
    outer loop
      vertex  2.880000e+002 -3.500000e+001  6.000000e+001
      vertex -2.880000e+002 -3.500000e+001  6.000000e+001
      vertex -2.880000e+002 -3.426585e+001  6.463525e+001
    endloop
  endfacet
  facet normal  0.000000e+000  9.876883e-001 -1.564348e-001
    outer loop
      vertex  2.880000e+002 -3.500000e+001  6.000000e+001
      vertex -2.880000e+002 -3.426585e+001  6.463525e+001
      vertex  2.880000e+002 -3.426585e+001  6.463525e+001
    endloop
  endfacet
  facet normal  0.000000e+000  8.910066e-001 -4.539902e-001
    outer loop
      vertex  2.880000e+002 -3.426585e+001  6.463525e+001
      vertex -2.880000e+002 -3.426585e+001  6.463525e+001
      vertex -2.880000e+002 -3.213525e+001  6.881678e+001
    endloop
  endfacet
  facet normal  0.000000e+000  8.910066e-001 -4.539902e-001
    outer loop
      vertex  2.880000e+002 -3.426585e+001  6.463525e+001
      vertex -2.880000e+002 -3.213525e+001  6.881678e+001
      vertex  2.880000e+002 -3.213525e+001  6.881678e+001
    endloop
  endfacet
  facet normal  0.000000e+000  7.071066e-001 -7.071069e-001
    outer loop
      vertex  2.880000e+002 -3.213525e+001  6.881678e+001
      vertex -2.880000e+002 -3.213525e+001  6.881678e+001
      vertex -2.880000e+002 -2.881678e+001  7.213525e+001
    endloop
  endfacet
  facet normal  0.000000e+000  7.071066e-001 -7.071069e-001
    outer loop
      vertex  2.880000e+002 -3.213525e+001  6.881678e+001
      vertex -2.880000e+002 -2.881678e+001  7.213525e+001
      vertex  2.880000e+002 -2.881678e+001  7.213525e+001
    endloop
  endfacet
  facet normal  0.000000e+000  4.539905e-001 -8.910065e-001
    outer loop
      vertex  2.880000e+002 -2.881678e+001  7.213525e+001
      vertex -2.880000e+002 -2.881678e+001  7.213525e+001
      vertex -2.880000e+002 -2.463526e+001  7.426585e+001
    endloop
  endfacet
  facet normal  0.000000e+000  4.539905e-001 -8.910065e-001
    outer loop
      vertex  2.880000e+002 -2.881678e+001  7.213525e+001
      vertex -2.880000e+002 -2.463526e+001  7.426585e+001
      vertex  2.880000e+002 -2.463526e+001  7.426585e+001
    endloop
  endfacet
  facet normal  0.000000e+000  1.564348e-001 -9.876884e-001
    outer loop
      vertex  2.880000e+002 -2.463526e+001  7.426585e+001
      vertex -2.880000e+002 -2.463526e+001  7.426585e+001
      vertex -2.880000e+002 -2.000000e+001  7.500000e+001
    endloop
  endfacet
  facet normal  0.000000e+000  1.564348e-001 -9.876884e-001
    outer loop
      vertex  2.880000e+002 -2.463526e+001  7.426585e+001
      vertex -2.880000e+002 -2.000000e+001  7.500000e+001
      vertex  2.880000e+002 -2.000000e+001  7.500000e+001
    endloop
  endfacet
  facet normal  0.000000e+000  0.000000e+000 -1.000000e+000
    outer loop
      vertex  2.880000e+002 -2.000000e+001  7.500000e+001
      vertex -2.880000e+002 -2.000000e+001  7.500000e+001
      vertex  2.880000e+002  2.000000e+001  7.500000e+001
    endloop
  endfacet
  facet normal  -0.000000e+000  0.000000e+000 -1.000000e+000
    outer loop
      vertex  2.880000e+002  2.000000e+001  7.500000e+001
      vertex -2.880000e+002 -2.000000e+001  7.500000e+001
      vertex -2.880000e+002  2.000000e+001  7.500000e+001
    endloop
  endfacet
  facet normal  -0.000000e+000 -9.876883e-001 -1.564348e-001
    outer loop
      vertex -2.880000e+002  3.500000e+001  6.000000e+001
      vertex  2.880000e+002  3.426585e+001  6.463525e+001
      vertex -2.880000e+002  3.426585e+001  6.463525e+001
    endloop
  endfacet
  facet normal  0.000000e+000 -8.910066e-001 -4.539902e-001
    outer loop
      vertex -2.880000e+002  3.426585e+001  6.463525e+001
      vertex  2.880000e+002  3.426585e+001  6.463525e+001
      vertex  2.880000e+002  3.213525e+001  6.881678e+001
    endloop
  endfacet
  facet normal  -0.000000e+000 -8.910066e-001 -4.539902e-001
    outer loop
      vertex -2.880000e+002  3.426585e+001  6.463525e+001
      vertex  2.880000e+002  3.213525e+001  6.881678e+001
      vertex -2.880000e+002  3.213525e+001  6.881678e+001
    endloop
  endfacet
  facet normal  0.000000e+000 -7.071066e-001 -7.071069e-001
    outer loop
      vertex -2.880000e+002  3.213525e+001  6.881678e+001
      vertex  2.880000e+002  3.213525e+001  6.881678e+001
      vertex  2.880000e+002  2.881678e+001  7.213525e+001
    endloop
  endfacet
  facet normal  -0.000000e+000 -7.071066e-001 -7.071069e-001
    outer loop
      vertex -2.880000e+002  3.213525e+001  6.881678e+001
      vertex  2.880000e+002  2.881678e+001  7.213525e+001
      vertex -2.880000e+002  2.881678e+001  7.213525e+001
    endloop
  endfacet
  facet normal  0.000000e+000 -4.539905e-001 -8.910065e-001
    outer loop
      vertex -2.880000e+002  2.881678e+001  7.213525e+001
      vertex  2.880000e+002  2.881678e+001  7.213525e+001
      vertex  2.880000e+002  2.463526e+001  7.426585e+001
    endloop
  endfacet
  facet normal  -0.000000e+000 -4.539905e-001 -8.910065e-001
    outer loop
      vertex -2.880000e+002  2.881678e+001  7.213525e+001
      vertex  2.880000e+002  2.463526e+001  7.426585e+001
      vertex -2.880000e+002  2.463526e+001  7.426585e+001
    endloop
  endfacet
  facet normal  0.000000e+000 -1.564348e-001 -9.876884e-001
    outer loop
      vertex -2.880000e+002  2.463526e+001  7.426585e+001
      vertex  2.880000e+002  2.463526e+001  7.426585e+001
      vertex  2.880000e+002  2.000000e+001  7.500000e+001
    endloop
  endfacet
  facet normal  -0.000000e+000 -1.564348e-001 -9.876884e-001
    outer loop
      vertex -2.880000e+002  2.463526e+001  7.426585e+001
      vertex  2.880000e+002  2.000000e+001  7.500000e+001
      vertex -2.880000e+002  2.000000e+001  7.500000e+001
    endloop
  endfacet
  facet normal  0.000000e+000 -9.876883e-001 -1.564348e-001
    outer loop
      vertex  2.880000e+002  3.426585e+001  6.463525e+001
      vertex -2.880000e+002  3.500000e+001  6.000000e+001
      vertex  2.880000e+002  3.500000e+001  6.000000e+001
    endloop
  endfacet
  facet normal  0.000000e+000 -9.876883e-001  1.564348e-001
    outer loop
      vertex  2.880000e+002  3.500000e+001  6.000000e+001
      vertex -2.880000e+002  3.500000e+001  6.000000e+001
      vertex -2.880000e+002  3.426585e+001  5.536475e+001
    endloop
  endfacet
  facet normal  0.000000e+000 -9.876883e-001  1.564348e-001
    outer loop
      vertex  2.880000e+002  3.500000e+001  6.000000e+001
      vertex -2.880000e+002  3.426585e+001  5.536475e+001
      vertex  2.880000e+002  3.426585e+001  5.536475e+001
    endloop
  endfacet
  facet normal  0.000000e+000 -8.910066e-001  4.539902e-001
    outer loop
      vertex  2.880000e+002  3.426585e+001  5.536475e+001
      vertex -2.880000e+002  3.426585e+001  5.536475e+001
      vertex -2.880000e+002  3.213525e+001  5.118322e+001
    endloop
  endfacet
  facet normal  0.000000e+000 -8.910066e-001  4.539902e-001
    outer loop
      vertex  2.880000e+002  3.426585e+001  5.536475e+001
      vertex -2.880000e+002  3.213525e+001  5.118322e+001
      vertex  2.880000e+002  3.213525e+001  5.118322e+001
    endloop
  endfacet
  facet normal  0.000000e+000 -7.071066e-001  7.071069e-001
    outer loop
      vertex  2.880000e+002  3.213525e+001  5.118322e+001
      vertex -2.880000e+002  3.213525e+001  5.118322e+001
      vertex -2.880000e+002  2.881678e+001  4.786475e+001
    endloop
  endfacet
  facet normal  0.000000e+000 -7.071066e-001  7.071069e-001
    outer loop
      vertex  2.880000e+002  3.213525e+001  5.118322e+001
      vertex -2.880000e+002  2.881678e+001  4.786475e+001
      vertex  2.880000e+002  2.881678e+001  4.786475e+001
    endloop
  endfacet
  facet normal  0.000000e+000 -4.539905e-001  8.910065e-001
    outer loop
      vertex  2.880000e+002  2.881678e+001  4.786475e+001
      vertex -2.880000e+002  2.881678e+001  4.786475e+001
      vertex -2.880000e+002  2.463526e+001  4.573415e+001
    endloop
  endfacet
  facet normal  0.000000e+000 -4.539905e-001  8.910065e-001
    outer loop
      vertex  2.880000e+002  2.881678e+001  4.786475e+001
      vertex -2.880000e+002  2.463526e+001  4.573415e+001
      vertex  2.880000e+002  2.463526e+001  4.573415e+001
    endloop
  endfacet
  facet normal  0.000000e+000 -1.564348e-001  9.876884e-001
    outer loop
      vertex  2.880000e+002  2.463526e+001  4.573415e+001
      vertex -2.880000e+002  2.463526e+001  4.573415e+001
      vertex -2.880000e+002  2.000000e+001  4.500000e+001
    endloop
  endfacet
  facet normal  0.000000e+000 -1.564348e-001  9.876884e-001
    outer loop
      vertex  2.880000e+002  2.463526e+001  4.573415e+001
      vertex -2.880000e+002  2.000000e+001  4.500000e+001
      vertex  2.880000e+002  2.000000e+001  4.500000e+001
    endloop
  endfacet
  facet normal  0.000000e+000  0.000000e+000 -1.000000e+000
    outer loop
      vertex -2.880000e+002 -1.605900e+002 -1.010000e+002
      vertex -2.880000e+002  1.605900e+002 -1.010000e+002
      vertex  2.880000e+002 -1.605900e+002 -1.010000e+002
    endloop
  endfacet
  facet normal  0.000000e+000  0.000000e+000 -1.000000e+000
    outer loop
      vertex  2.880000e+002 -1.605900e+002 -1.010000e+002
      vertex -2.880000e+002  1.605900e+002 -1.010000e+002
      vertex  2.880000e+002  1.605900e+002 -1.010000e+002
    endloop
  endfacet
  facet normal  0.000000e+000 -1.000000e+000  0.000000e+000
    outer loop
      vertex  2.880000e+002 -1.790000e+002  8.259000e+001
      vertex -2.880000e+002 -1.790000e+002  8.259000e+001
      vertex  2.880000e+002 -1.790000e+002 -8.259000e+001
    endloop
  endfacet
  facet normal  0.000000e+000 -1.000000e+000  0.000000e+000
    outer loop
      vertex  2.880000e+002 -1.790000e+002 -8.259000e+001
      vertex -2.880000e+002 -1.790000e+002  8.259000e+001
      vertex -2.880000e+002 -1.790000e+002 -8.259000e+001
    endloop
  endfacet
  facet normal  0.000000e+000 -7.071068e-001 -7.071068e-001
    outer loop
      vertex  2.880000e+002 -1.605900e+002 -1.010000e+002
      vertex  2.880000e+002 -1.790000e+002 -8.259000e+001
      vertex -2.880000e+002 -1.605900e+002 -1.010000e+002
    endloop
  endfacet
  facet normal  0.000000e+000 -7.071068e-001 -7.071068e-001
    outer loop
      vertex -2.880000e+002 -1.605900e+002 -1.010000e+002
      vertex  2.880000e+002 -1.790000e+002 -8.259000e+001
      vertex -2.880000e+002 -1.790000e+002 -8.259000e+001
    endloop
  endfacet
  facet normal  0.000000e+000  1.000000e+000  0.000000e+000
    outer loop
      vertex -2.880000e+002  1.790000e+002  8.259000e+001
      vertex  2.880000e+002  1.790000e+002  8.259000e+001
      vertex -2.880000e+002  1.790000e+002 -8.259000e+001
    endloop
  endfacet
  facet normal  0.000000e+000  1.000000e+000  0.000000e+000
    outer loop
      vertex -2.880000e+002  1.790000e+002 -8.259000e+001
      vertex  2.880000e+002  1.790000e+002  8.259000e+001
      vertex  2.880000e+002  1.790000e+002 -8.259000e+001
    endloop
  endfacet
  facet normal  0.000000e+000  7.071068e-001 -7.071068e-001
    outer loop
      vertex -2.880000e+002  1.605900e+002 -1.010000e+002
      vertex -2.880000e+002  1.790000e+002 -8.259000e+001
      vertex  2.880000e+002  1.605900e+002 -1.010000e+002
    endloop
  endfacet
  facet normal  0.000000e+000  7.071068e-001 -7.071068e-001
    outer loop
      vertex  2.880000e+002  1.605900e+002 -1.010000e+002
      vertex -2.880000e+002  1.790000e+002 -8.259000e+001
      vertex  2.880000e+002  1.790000e+002 -8.259000e+001
    endloop
  endfacet
  facet normal  0.000000e+000 -7.071068e-001  7.071068e-001
    outer loop
      vertex  2.880000e+002 -1.605900e+002  1.010000e+002
      vertex -2.880000e+002 -1.605900e+002  1.010000e+002
      vertex  2.880000e+002 -1.790000e+002  8.259000e+001
    endloop
  endfacet
  facet normal  0.000000e+000 -7.071068e-001  7.071068e-001
    outer loop
      vertex  2.880000e+002 -1.790000e+002  8.259000e+001
      vertex -2.880000e+002 -1.605900e+002  1.010000e+002
      vertex -2.880000e+002 -1.790000e+002  8.259000e+001
    endloop
  endfacet
  facet normal  0.000000e+000  7.071068e-001  7.071068e-001
    outer loop
      vertex -2.880000e+002  1.605900e+002  1.010000e+002
      vertex  2.880000e+002  1.605900e+002  1.010000e+002
      vertex -2.880000e+002  1.790000e+002  8.259000e+001
    endloop
  endfacet
  facet normal  -0.000000e+000  7.071068e-001  7.071068e-001
    outer loop
      vertex -2.880000e+002  1.790000e+002  8.259000e+001
      vertex  2.880000e+002  1.605900e+002  1.010000e+002
      vertex  2.880000e+002  1.790000e+002  8.259000e+001
    endloop
  endfacet
endsolid CATIA STL
